<svg width="1308" height="613" viewBox="0 0 1308 613" fill="none" xmlns="http://www.w3.org/2000/svg">
<g clip-path="url(#clip0_46_19)">
<path d="M100.598 605.377C49.3208 605.377 7.5813 563.337 7.5813 511.695V101.305C7.5813 49.6538 49.3208 7.63257 100.598 7.63257H1206.53C1257.83 7.63257 1299.57 49.6538 1299.57 101.305V605.377H100.598Z" fill="#008C50"/>
<path d="M1206.51 15.2651C1253.71 15.2651 1291.94 53.8038 1291.94 101.305V597.74H100.579C53.373 597.74 15.1487 559.229 15.1487 511.695V101.305C15.1487 53.7897 53.359 15.2651 100.579 15.2651H1206.51V15.2651ZM1206.51 0H100.579C45.1334 0 0 45.4474 0 101.305V511.695C0 567.571 45.1334 613 100.598 613H1307.13V101.305C1307.13 45.4474 1262.03 0 1206.51 0V0Z" fill="white"/>
<path fill-rule="evenodd" clip-rule="evenodd" d="M1052.77 166.722H1097.98L1165.64 257.65H1120.5L1154.41 303.111H1097.98L1064.05 257.659H1086.62L1052.81 212.174H1086.62L1052.77 166.722Z" fill="white"/>
<path fill-rule="evenodd" clip-rule="evenodd" d="M1052.77 166.722H1007.6L939.912 257.65H985.013L951.172 303.111H1007.64L1041.49 257.659H1018.92L1052.77 212.174H1018.95L1052.77 166.722Z" fill="white"/>
<path d="M915.805 142.48H907.925V470.534H915.805V142.48Z" fill="white"/>
<path fill-rule="evenodd" clip-rule="evenodd" d="M190.001 175.774H141.492V253.063C141.492 290.605 169.199 305.17 204.482 305.17C242.697 305.17 267.836 291.691 267.836 250.492V175.774H220.415V251.408C220.415 263.797 217.694 272.374 205.056 272.374C193.451 272.374 190.015 263.252 190.015 251.225L190.001 175.774Z" fill="white"/>
<path fill-rule="evenodd" clip-rule="evenodd" d="M281.402 302.999H327.007V248.311C327.007 242.85 327.007 235.377 335.143 235.377C343.117 235.377 343.117 242.85 343.117 248.311V302.999H388.722V237.032C388.722 218.604 379.852 205.853 355.605 205.853C342.757 205.853 330.251 211.136 324.822 224.441H324.476V208.038H281.402V302.999Z" fill="white"/>
<path fill-rule="evenodd" clip-rule="evenodd" d="M406.065 302.999H451.708V208.038H406.065V302.999ZM451.708 166.308H406.065V198.023H451.708V166.308Z" fill="white"/>
<path fill-rule="evenodd" clip-rule="evenodd" d="M466.637 302.999H512.279V248.311C512.279 242.85 512.279 235.377 520.384 235.377C528.348 235.377 528.348 242.85 528.348 248.311V302.999H573.981V248.311C573.981 242.85 573.981 235.377 581.945 235.377C590.091 235.377 590.091 242.85 590.091 248.311V302.999H635.696V246.131C635.696 227.566 635.696 205.867 602.378 205.867C591.174 205.867 575.237 211.15 572.169 222.105H571.805C568.173 210.788 554.999 205.867 542.311 205.867C527.993 205.867 515.524 211.15 510.099 224.455H509.712V208.052H466.637V302.999Z" fill="white"/>
<path fill-rule="evenodd" clip-rule="evenodd" d="M689.404 246.478C688.858 239.034 691.225 227.731 701.691 227.731C712.004 227.731 713.129 239.212 713.129 246.478H689.404ZM752.581 266.518V260.879C752.581 228.807 739.72 205.844 703.148 205.844C664.975 205.844 644.7 221.884 644.7 253.782C644.7 286.577 664.975 305.165 703.148 305.165C719.067 305.165 733.553 303.501 745.695 299.685V275.096C738.431 278.931 727.213 281.111 714.707 281.111C701.327 281.111 690.296 278.39 689.544 266.542L752.581 266.518Z" fill="white"/>
<path fill-rule="evenodd" clip-rule="evenodd" d="M875.778 302.999V166.308H830.178V220.258H829.809C822.755 210.05 813.47 205.853 801.393 205.853C772.968 205.853 761.222 228.276 761.222 253.965C761.222 281.478 772.426 305.193 802.649 305.193C817.49 305.193 826.752 299.901 833.054 285.698H833.413V302.999H875.778ZM831.471 255.06C831.471 263.99 829.987 274.555 820.211 274.555C810.286 274.555 808.624 263.976 808.624 253.942C808.624 244.072 810.286 234.249 819.856 234.249C829.987 234.273 831.471 244.105 831.471 255.084V255.06Z" fill="white"/>
<path d="M1165.64 327.381H141.492V335.277H1165.64V327.381Z" fill="white"/>
<path d="M637.91 405.662V363.109H622.015V357.416H660.256V363.109H644.295V405.662H637.91Z" fill="white"/>
<path d="M682.503 394.407L688.625 395.163C687.659 398.74 685.871 401.515 683.26 403.49C680.649 405.464 677.314 406.452 673.256 406.452C668.144 406.452 664.085 404.883 661.079 401.745C658.095 398.586 656.603 394.165 656.603 388.483C656.603 382.603 658.117 378.039 661.145 374.792C664.172 371.545 668.1 369.921 672.926 369.921C677.6 369.921 681.417 371.512 684.379 374.693C687.341 377.875 688.822 382.35 688.822 388.121C688.822 388.472 688.811 388.998 688.789 389.7H662.724C662.944 393.54 664.03 396.48 665.982 398.52C667.935 400.561 670.37 401.581 673.288 401.581C675.461 401.581 677.314 401.01 678.85 399.87C680.386 398.729 681.604 396.908 682.503 394.407ZM663.053 384.83H682.569C682.306 381.89 681.56 379.685 680.331 378.215C678.444 375.933 675.998 374.792 672.992 374.792C670.272 374.792 667.979 375.703 666.114 377.524C664.271 379.345 663.251 381.78 663.053 384.83Z" fill="white"/>
<path d="M696.029 405.662V370.711H701.361V376.01C702.721 373.531 703.972 371.896 705.112 371.106C706.275 370.316 707.548 369.921 708.93 369.921C710.927 369.921 712.956 370.558 715.018 371.83L712.978 377.326C711.53 376.471 710.082 376.043 708.634 376.043C707.339 376.043 706.177 376.438 705.145 377.227C704.114 377.995 703.379 379.07 702.94 380.453C702.282 382.559 701.953 384.863 701.953 387.364V405.662H696.029Z" fill="white"/>
<path d="M742.465 394.407L748.587 395.163C747.621 398.74 745.833 401.515 743.222 403.49C740.611 405.464 737.277 406.452 733.218 406.452C728.106 406.452 724.047 404.883 721.041 401.745C718.057 398.586 716.565 394.165 716.565 388.483C716.565 382.603 718.079 378.039 721.107 374.792C724.134 371.545 728.062 369.921 732.889 369.921C737.562 369.921 741.379 371.512 744.341 374.693C747.303 377.875 748.784 382.35 748.784 388.121C748.784 388.472 748.773 388.998 748.751 389.7H722.686C722.906 393.54 723.992 396.48 725.945 398.52C727.897 400.561 730.333 401.581 733.251 401.581C735.423 401.581 737.277 401.01 738.812 399.87C740.348 398.729 741.566 396.908 742.465 394.407ZM723.016 384.83H742.531C742.268 381.89 741.522 379.685 740.293 378.215C738.406 375.933 735.96 374.792 732.954 374.792C730.234 374.792 727.941 375.703 726.076 377.524C724.233 379.345 723.213 381.78 723.016 384.83Z" fill="white"/>
<path d="M753.688 395.229L759.546 394.308C759.875 396.655 760.785 398.454 762.277 399.705C763.791 400.956 765.897 401.581 768.596 401.581C771.317 401.581 773.335 401.032 774.651 399.935C775.968 398.816 776.626 397.511 776.626 396.019C776.626 394.681 776.045 393.628 774.882 392.86C774.07 392.333 772.051 391.664 768.826 390.852C764.482 389.755 761.465 388.812 759.776 388.022C758.109 387.21 756.836 386.102 755.958 384.698C755.103 383.272 754.675 381.703 754.675 379.992C754.675 378.434 755.026 376.997 755.728 375.681C756.452 374.342 757.428 373.234 758.657 372.357C759.579 371.677 760.829 371.106 762.409 370.645C764.01 370.163 765.722 369.921 767.543 369.921C770.285 369.921 772.688 370.316 774.75 371.106C776.834 371.896 778.37 372.971 779.358 374.331C780.345 375.67 781.025 377.469 781.398 379.729L775.606 380.518C775.342 378.719 774.575 377.315 773.302 376.306C772.052 375.297 770.274 374.792 767.971 374.792C765.25 374.792 763.308 375.242 762.146 376.141C760.983 377.041 760.401 378.094 760.401 379.301C760.401 380.069 760.643 380.76 761.125 381.374C761.608 382.01 762.365 382.537 763.396 382.954C763.989 383.173 765.733 383.678 768.629 384.468C772.819 385.587 775.737 386.508 777.383 387.232C779.05 387.934 780.356 388.965 781.299 390.326C782.243 391.686 782.714 393.375 782.714 395.394C782.714 397.368 782.133 399.233 780.97 400.989C779.829 402.722 778.173 404.071 776.001 405.036C773.829 405.98 771.371 406.452 768.629 406.452C764.087 406.452 760.621 405.508 758.229 403.621C755.86 401.734 754.346 398.937 753.688 395.229Z" fill="white"/>
<path d="M789.79 364.228V357.416H795.714V364.228H789.79ZM789.79 405.662V370.711H795.714V405.662H789.79Z" fill="white"/>
<path d="M804.764 405.662V370.711H810.095V375.681C812.662 371.841 816.37 369.921 821.219 369.921C823.325 369.921 825.256 370.305 827.011 371.073C828.788 371.819 830.116 372.807 830.993 374.035C831.871 375.264 832.485 376.723 832.836 378.412C833.056 379.509 833.165 381.429 833.165 384.172V405.662H827.242V384.402C827.242 381.988 827.011 380.189 826.551 379.005C826.09 377.798 825.267 376.844 824.082 376.141C822.919 375.417 821.548 375.055 819.969 375.055C817.445 375.055 815.262 375.856 813.419 377.458C811.598 379.059 810.688 382.098 810.688 386.574V405.662H804.764Z" fill="white"/>
<path d="M865.088 401.351C862.894 403.215 860.777 404.532 858.737 405.3C856.718 406.068 854.546 406.452 852.22 406.452C848.381 406.452 845.43 405.519 843.368 403.654C841.305 401.767 840.274 399.365 840.274 396.447C840.274 394.736 840.658 393.178 841.426 391.774C842.216 390.348 843.236 389.207 844.486 388.351C845.759 387.495 847.185 386.848 848.765 386.409C849.928 386.102 851.683 385.806 854.03 385.521C858.813 384.95 862.335 384.27 864.595 383.48C864.616 382.669 864.627 382.153 864.627 381.934C864.627 379.52 864.068 377.82 862.949 376.833C861.435 375.494 859.186 374.825 856.202 374.825C853.416 374.825 851.354 375.319 850.015 376.306C848.699 377.271 847.723 378.994 847.086 381.473L841.294 380.683C841.821 378.204 842.687 376.207 843.894 374.693C845.101 373.158 846.845 371.984 849.127 371.172C851.409 370.338 854.052 369.921 857.058 369.921C860.042 369.921 862.466 370.273 864.331 370.975C866.196 371.677 867.567 372.565 868.445 373.64C869.323 374.693 869.937 376.032 870.288 377.655C870.485 378.665 870.584 380.486 870.584 383.118V391.017C870.584 396.524 870.705 400.012 870.946 401.482C871.209 402.93 871.714 404.323 872.46 405.662H866.273C865.659 404.433 865.264 402.996 865.088 401.351ZM864.595 388.121C862.444 388.998 859.219 389.744 854.919 390.359C852.484 390.71 850.761 391.105 849.752 391.543C848.743 391.982 847.964 392.629 847.415 393.485C846.867 394.319 846.593 395.251 846.593 396.282C846.593 397.862 847.185 399.178 848.37 400.232C849.577 401.285 851.332 401.811 853.635 401.811C855.917 401.811 857.947 401.318 859.724 400.33C861.501 399.321 862.806 397.95 863.64 396.217C864.276 394.878 864.595 392.904 864.595 390.293V388.121Z" fill="white"/>
</g>
<defs>
<clipPath id="clip0_46_19">
<rect width="1307.13" height="613" fill="white"/>
</clipPath>
</defs>
</svg>
